<svg width="944" height="1107" viewBox="0 0 944 1107" fill="none" xmlns="http://www.w3.org/2000/svg">
<path d="M637.952 877.377L190.375 903.09C160.904 904.787 133.001 881.978 128.05 852.17L0.756109 84.5879C-4.19464 54.7669 15.6861 29.2228 45.1703 27.5251L492.747 1.81238C522.218 0.114685 550.121 22.9243 555.059 52.7322L682.366 820.314C687.316 850.135 667.423 875.679 637.952 877.377Z" fill="#566BAE"/>
<path d="M585.074 51.0085L712.381 818.59C717.319 848.411 697.425 873.956 667.967 875.653L220.39 901.366C190.906 903.064 163.016 880.267 158.065 850.446L30.7584 82.8512C25.8206 53.0562 45.7014 27.499 75.1726 25.8013L522.762 0.0886841C552.22 -1.60919 580.136 21.2006 585.074 51.0085Z" fill="#5675D1"/>
<path d="M585.074 51.0092L586.798 61.3513C575.147 368.568 304.605 550.475 122.905 638.408L30.7584 82.8518C25.8206 53.0568 45.7014 27.4996 75.1726 25.8019L522.762 0.0892944C552.22 -1.60852 580.136 21.2012 585.074 51.0092Z" fill="#5B95DA"/>
<path d="M554.346 72.7814L662.809 726.743C667.086 752.546 649.875 774.643 624.382 776.108L230.448 798.736C204.942 800.2 180.798 780.488 176.508 754.685L68.0577 100.723C63.7809 74.9199 80.979 52.8101 106.497 51.3456L500.419 28.7173C525.924 27.2528 550.069 46.9781 554.346 72.7814Z" fill="#D8E2FF"/>
<path d="M554.346 72.7809L570.74 171.601C468.511 515.78 154.411 621.43 154.411 621.43L68.0577 100.723C63.7809 74.9194 80.979 52.8097 106.497 51.3452L500.419 28.7169C525.924 27.2524 550.069 46.9777 554.346 72.7809Z" fill="#E2EDFF"/>
<path d="M467.915 833.676C470.935 851.846 458.817 867.411 440.841 868.448C422.879 869.484 405.875 855.578 402.855 837.408C399.849 819.238 411.966 803.661 429.929 802.637C447.892 801.6 464.908 815.493 467.915 833.676Z" fill="#5BACDA"/>
<path d="M429.489 799.993C410.088 801.107 396.998 817.93 400.251 837.564C403.517 857.185 421.881 872.193 441.283 871.078C460.684 869.964 473.773 853.155 470.52 833.52C467.267 813.886 448.903 798.878 429.489 799.993ZM431.394 811.424C444.536 810.659 457.029 820.871 459.232 834.168C461.435 847.465 452.532 858.896 439.39 859.661C426.249 860.412 413.755 850.213 411.552 836.903C409.349 823.606 418.24 812.175 431.394 811.424Z" fill="#316BAA"/>
<path d="M359.219 827.74L200.277 836.877C195.78 837.136 191.516 833.65 190.751 829.088C189.999 824.539 193.032 820.625 197.542 820.366L356.471 811.242C360.982 810.983 365.246 814.469 365.997 819.018C366.762 823.58 363.716 827.481 359.219 827.74Z" fill="#5B95DA"/>
<path d="M658.687 810.529L503.088 819.472C498.591 819.731 494.327 816.245 493.563 811.696C492.811 807.134 495.844 803.233 500.354 802.974L655.94 794.031C660.45 793.772 664.714 797.258 665.465 801.82C666.23 806.369 663.184 810.27 658.687 810.529Z" fill="#5B95DA"/>
<path d="M618.122 752.702L233.337 774.812C221.012 775.525 209.348 765.986 207.288 753.532C205.214 741.064 213.534 730.385 225.846 729.672L610.644 707.576C622.956 706.863 634.62 716.388 636.694 728.856C638.755 741.323 630.447 752.003 618.122 752.702Z" fill="#DDFFFF"/>
<path d="M364.779 128.069C366.529 138.631 364.65 148.377 360.191 155.622C355.746 162.854 348.709 167.584 340.168 168.064L173.709 177.628L125.082 210.326C126.106 208.654 130.655 189.836 134.271 174.388C124.175 168.232 116.14 156.4 113.833 142.494C112.083 131.931 113.963 122.172 118.408 114.928C122.866 107.696 129.891 102.966 138.431 102.486L327.493 91.6126C344.574 90.6406 361.28 106.944 364.779 128.069Z" fill="#B1C6F9"/>
<path d="M326.585 139.889L151.845 149.933C145.689 150.283 139.856 145.527 138.82 139.293C137.783 133.059 141.943 127.72 148.099 127.37L322.84 117.326C328.996 116.976 334.828 121.732 335.865 127.966C336.902 134.2 332.741 139.539 326.585 139.889Z" fill="#C1DDFF"/>
<path d="M393.187 514.38C394.937 524.942 399.24 534.325 404.799 541C410.333 547.661 417.124 551.588 423.838 551.212L554.54 543.695L601.495 570.898C600.212 569.356 591.204 551.316 583.895 536.503C589.843 529.414 592.552 516.959 590.245 503.066C588.496 492.503 584.18 483.107 578.646 476.433C573.086 469.772 566.308 465.845 559.608 466.221L411.163 474.748C397.736 475.526 389.688 493.255 393.187 514.38Z" fill="#B1C6F9"/>
<path d="M427.143 522.066L562.096 514.303C567.552 513.992 571.233 509.261 570.313 503.74L569.885 501.174C568.978 495.64 563.807 491.428 558.351 491.739L423.397 499.49C417.941 499.801 414.26 504.531 415.168 510.065L415.595 512.631C416.516 518.152 421.687 522.377 427.143 522.066Z" fill="#C1DDFF"/>
<path d="M364.079 405.569C366.14 417.945 365.168 429.324 361.941 437.709C358.727 446.081 353.245 451.473 346.272 451.862L210.515 459.664L172.62 496.937C173.359 495.005 175.977 473.077 178.024 455.076C169.393 447.65 162.122 433.64 159.414 417.323C157.366 404.933 158.325 393.555 161.539 385.157C164.766 376.784 170.235 371.406 177.208 371.004L331.394 362.14C345.339 361.349 359.971 380.776 364.079 405.569Z" fill="#B1C6F9"/>
<path d="M329.645 401.356L189.08 409.43C183.52 409.754 178.258 405.451 177.325 399.814L176.962 397.637C176.029 391.999 179.774 387.178 185.347 386.867L325.899 378.793C331.459 378.469 336.734 382.771 337.667 388.396L338.03 390.586C338.963 396.211 335.204 401.032 329.645 401.356Z" fill="#C1DDFF"/>
<path d="M288.276 440.95L193.512 446.393C188.885 446.652 184.491 443.075 183.714 438.384L182.794 432.798C182.016 428.106 185.139 424.089 189.779 423.817L284.543 418.373C289.17 418.114 293.563 421.691 294.341 426.383L295.261 431.969C296.039 436.66 292.915 440.678 288.276 440.95Z" fill="#C1DDFF"/>
<path d="M539.481 301.461C548.112 323.039 560.113 352.899 561.176 354.999C562.33 357.267 512.044 332.409 479.8 316.313L368.421 322.702C341.956 324.232 316.904 303.768 312.459 276.979L307.781 248.778C303.348 222.003 321.207 199.064 347.659 197.548L489.831 189.37C516.308 187.853 541.36 208.33 545.805 235.093L550.484 263.307C552.959 278.249 548.488 291.974 539.481 301.461Z" fill="#B1C6F9"/>
<path d="M509.776 241.197L345.131 250.658C338.975 251.008 333.143 246.238 332.106 240.005C331.083 233.771 335.23 228.444 341.399 228.081L506.031 218.621C512.187 218.271 518.019 223.04 519.056 229.261C520.079 235.495 515.932 240.834 509.776 241.197Z" fill="#C1DDFF"/>
<path d="M430.642 292.441L352.493 296.938C346.505 297.275 340.841 292.648 339.844 286.596L337.316 271.355C336.305 265.302 340.349 260.118 346.324 259.768L424.473 255.284C430.46 254.934 436.124 259.561 437.135 265.613L439.662 280.854C440.66 286.907 436.629 292.104 430.642 292.441Z" fill="#C1DDFF"/>
<path d="M517.759 287.438L465.141 290.458C459.167 290.808 453.49 286.181 452.492 280.116L449.965 264.888C448.967 258.823 452.998 253.639 458.985 253.289L511.59 250.269C517.578 249.932 523.241 254.559 524.252 260.611L526.78 275.852C527.778 281.904 523.747 287.088 517.759 287.438Z" fill="#C1DDFF"/>
<path d="M602.959 645.925L613.716 685.375L562.744 652.794L493.084 656.785C479.178 657.589 466.023 646.845 463.69 632.783L461.448 619.24C459.115 605.178 468.486 593.126 482.392 592.335L578.724 586.788C592.617 585.998 605.785 596.755 608.105 610.816L610.36 624.359C611.798 633.043 608.766 640.961 602.959 645.925Z" fill="#B1C6F9"/>
<path d="M490.751 634.338L584.089 628.973C590.258 628.623 594.405 623.283 593.382 617.05C592.345 610.816 586.513 606.059 580.357 606.409L487.005 611.775C480.849 612.125 476.689 617.464 477.726 623.698C478.763 629.932 484.595 634.688 490.751 634.338Z" fill="#C1DDFF"/>
<path d="M930.876 735.57C930.876 842.269 856.018 967.605 737.084 967.605C663.38 967.605 602.727 922.479 567.281 862.163C545.469 825.123 533.183 782.355 533.183 740.779C533.183 631.462 652.493 636.672 728.102 636.672C811.021 636.672 909.466 630.321 927.817 707.55C929.826 715.87 930.876 725.189 930.876 735.57Z" fill="#5EBAE8"/>
<path d="M930.875 735.57C930.875 842.269 856.018 967.605 737.083 967.605C663.379 967.605 602.726 922.479 567.28 862.163C641.14 896.922 851.534 968.94 927.817 707.55C929.826 715.87 930.875 725.189 930.875 735.57Z" fill="#5EAEDD"/>
<path d="M636.111 678.895C620.663 704.076 631.588 739.924 658.117 753.998C686.15 768.876 724.305 755.541 734.725 725.979C744.639 697.881 725.549 666.402 698.203 657.563C676.275 650.487 648.955 657.939 636.111 678.895Z" fill="#B1EBED"/>
<path d="M527.83 748.231C584.478 756.81 621.22 749.734 609.906 709.144C607.962 702.184 604.605 694.214 599.694 685.168C583.195 654.88 379.839 499.684 363.496 581.099C359.284 602.146 363.794 622.791 373.929 642.037C403.05 697.233 478.607 740.779 527.83 748.231Z" fill="#5EBAE8"/>
<path d="M527.83 748.231C584.478 756.81 621.22 749.734 609.906 709.144C577.946 715.999 507.262 714.6 373.929 642.037C403.05 697.233 478.607 740.779 527.83 748.231Z" fill="#5EAEDD"/>
<path d="M466.347 623.75C498.735 645.057 555.759 678.338 559.906 672.389C563.639 667.037 524.862 629.025 476.754 603.779C449.966 589.717 417.488 578.144 415.09 582.563C412.109 588.059 456.278 617.115 466.347 623.75Z" fill="#B1EBED"/>
<path d="M942.514 497.3C934.893 603.015 692.501 637.942 579.113 574.049C547.62 556.294 526.081 530.905 522.283 497.3C504.865 342.713 607.198 201.177 724.785 201.177C767.41 201.177 817.462 217.493 858.908 253.626C912.032 299.893 951.094 378.677 942.514 497.3Z" fill="#5EBAE8"/>
<path d="M596.052 516.96C585.476 513.513 578.595 506.735 574.357 499.516C566.749 486.556 567.669 472.144 571.194 472.961C576.677 474.257 584.984 491.468 599.357 496.146C615.868 501.525 630.746 494.539 639.364 496.924C639.753 497.027 640.116 497.144 640.479 497.261C649.097 500.073 628.491 527.522 596.052 516.96Z" fill="#284F80"/>
<path d="M942.513 497.3C934.893 603.015 692.5 637.942 579.112 574.049C648.384 585.545 854.605 610.791 891.709 511.439C923.617 425.994 884.167 311.998 858.908 253.626C912.031 299.893 951.093 378.677 942.513 497.3Z" fill="#5EAEDD"/>
<path d="M776.119 419.864C771.7 440.613 748.735 449.063 721.026 451.084C691.853 453.21 657.418 448.22 633.831 442.907C600.07 435.312 536.215 414.757 517.825 385.61C513.509 378.767 511.708 371.458 513.354 363.747C518.162 341.274 529.735 318.335 546.337 306.477C562.926 294.618 584.543 293.854 605.072 298.234L719.173 322.612C743.032 327.705 761.643 344.553 771.156 366.585C778.011 382.487 780.15 401.059 776.119 419.864Z" fill="#284F80"/>
<path d="M776.119 419.864C771.699 440.613 748.734 449.063 721.025 451.084C691.852 453.21 657.417 448.22 633.83 442.907C600.069 435.312 536.215 414.757 517.824 385.61C585.346 397.65 701.922 409.612 771.155 366.585C778.011 382.487 780.149 401.059 776.119 419.864Z" fill="#334879"/>
<path d="M678.179 324.167C677.972 326.72 661.798 329.377 646 327.679C620.365 324.932 599.292 311.077 600.302 308.019C600.769 306.619 616.658 309.833 648.423 316.326C673.942 321.536 678.296 322.819 678.179 324.167Z" fill="#2869BC"/>
<path d="M605.499 352.614C605.499 371.743 589.986 387.256 570.857 387.256C556.056 387.256 543.433 378.002 538.469 364.965C537.005 361.128 536.188 356.968 536.188 352.614C536.188 333.472 551.702 317.959 570.857 317.959C584.944 317.959 597.062 326.37 602.466 338.435C604.423 342.764 605.499 347.559 605.499 352.614Z" fill="#383660"/>
<path d="M570.857 311.426C548.138 311.426 529.657 329.907 529.657 352.613C529.657 357.655 530.564 362.592 532.366 367.297C538.405 383.147 553.88 393.787 570.857 393.787C593.563 393.787 612.032 375.319 612.032 352.613C612.032 346.742 610.813 341.066 608.416 335.752C601.806 320.978 587.057 311.426 570.857 311.426ZM570.844 317.958C584.932 317.958 597.063 326.369 602.467 338.435C604.424 342.764 605.5 347.559 605.5 352.613C605.5 371.742 589.986 387.255 570.857 387.255C556.057 387.255 543.434 378.002 538.47 364.964C537.006 361.128 536.189 356.968 536.189 352.613C536.189 333.471 551.702 317.958 570.844 317.958Z" fill="#46AED1"/>
<path d="M602.441 338.396C589.506 369.669 557.417 368.71 538.547 365.068C537.07 361.232 536.241 357.072 536.228 352.717C536.163 333.588 551.624 318.023 570.779 317.958C584.854 317.907 596.997 326.356 602.441 338.396Z" fill="#2F4472"/>
<path d="M569.341 341.105C569.341 347.455 564.183 352.613 557.833 352.613C551.482 352.613 546.337 347.455 546.337 341.105C546.337 334.754 551.482 329.609 557.833 329.609C564.183 329.609 569.341 334.754 569.341 341.105Z" fill="#B1EBED"/>
<path d="M598.021 359.34C599.9 360.597 597.347 372.675 588.768 377.289C581.147 381.398 571.051 378.391 570.818 376.162C570.637 374.529 575.872 374.088 584.633 368.787C593.835 363.215 596.712 358.458 598.021 359.34Z" fill="#B1EBED"/>
<path d="M735.969 387.255C735.969 406.397 720.455 421.91 701.313 421.91C686.526 421.91 673.903 412.657 668.926 399.619C667.462 395.783 666.658 391.61 666.658 387.255C666.658 368.126 682.171 352.613 701.313 352.613C715.401 352.613 727.519 361.024 732.923 373.09C734.88 377.418 735.969 382.214 735.969 387.255Z" fill="#383660"/>
<path d="M701.313 346.082C678.607 346.082 660.126 364.551 660.126 387.256C660.126 392.311 661.033 397.249 662.822 401.953C668.874 417.79 684.335 428.443 701.313 428.443C724.019 428.443 742.5 409.962 742.5 387.256C742.5 381.386 741.282 375.709 738.871 370.395C732.262 355.634 717.526 346.082 701.313 346.082ZM701.313 352.614C715.401 352.614 727.518 361.025 732.923 373.091C734.88 377.42 735.968 382.215 735.968 387.256C735.968 406.398 720.455 421.911 701.313 421.911C686.526 421.911 673.903 412.658 668.926 399.62C667.461 395.784 666.658 391.611 666.658 387.256C666.658 368.127 682.158 352.614 701.313 352.614Z" fill="#46AED1"/>
<path d="M732.897 373.013C719.963 404.285 687.873 403.352 669.003 399.723C667.526 395.887 666.709 391.727 666.696 387.372C666.632 368.23 682.093 352.666 701.235 352.614C715.323 352.562 727.453 360.973 732.897 373.013Z" fill="#2F4472"/>
<path d="M699.797 375.76C699.797 382.111 694.652 387.256 688.301 387.256C681.951 387.256 676.793 382.111 676.793 375.76C676.793 369.41 681.951 364.252 688.301 364.252C694.652 364.252 699.797 369.41 699.797 375.76Z" fill="#B1EBED"/>
<path d="M728.491 393.995C730.37 395.252 727.804 407.318 719.237 411.945C711.617 416.04 701.521 413.033 701.274 410.817C701.106 409.184 706.342 408.743 715.09 403.443C724.304 397.857 727.182 393.101 728.491 393.995Z" fill="#B1EBED"/>
<path d="M744.354 240.173C744.211 239.201 740.894 216.119 752.208 187.62C762.55 161.544 787.654 125.788 848.449 103.523L852.376 114.266C807.016 130.868 776.961 156.775 763.055 191.275C752.687 217.013 755.629 238.255 755.668 238.462L744.354 240.173Z" fill="#5EBAE8"/>
<path d="M879.437 125.866C867.669 134.665 850.989 132.268 842.176 120.5C833.376 108.732 835.774 92.053 847.542 83.2402C859.31 74.4404 875.989 76.838 884.789 88.6057C893.602 100.373 891.204 117.053 879.437 125.866Z" fill="#284F80"/>
<path d="M856.485 87.5434C851.119 93.3235 851.443 102.357 857.224 107.722C863.004 113.1 872.037 112.763 877.415 106.983C882.781 101.203 882.444 92.1702 876.664 86.8047C870.884 81.4392 861.85 81.7632 856.485 87.5434Z" fill="#2869BC"/>
<path d="M792.449 246.018C796.207 268.62 754.851 298.804 715.168 302.472C679.929 305.738 636.928 288.929 634.712 267.311C632.353 244.385 676.015 217.908 715.168 215.044C747.024 212.724 788.963 225.049 792.449 246.018Z" fill="#B1EBED"/>
<path d="M935.683 1052.74C935.683 1082.33 843.174 1106.3 729.073 1106.3C614.96 1106.3 522.464 1082.33 522.464 1052.74C522.464 1023.15 614.96 999.175 729.073 999.175C843.174 999.175 935.683 1023.15 935.683 1052.74Z" fill="#C8E9FF"/>
</svg>
