<svg width="897" height="1214" viewBox="0 0 897 1214" fill="none" xmlns="http://www.w3.org/2000/svg">
<path d="M179.42 780.647C173.623 806.237 143.787 802.088 103.68 783.701C55.7831 761.737 -12.233 684.937 1.89274 623.649C1.89274 623.632 1.89274 623.632 1.89274 623.632C3.18304 618.047 5.14286 612.609 7.86966 607.334C40.5304 544.186 171.287 719.931 177.705 748.754C180.743 762.406 181.184 772.891 179.42 780.647Z" fill="#5EBAE8"/>
<path d="M179.42 780.647C173.623 806.237 143.787 802.088 103.68 783.701C55.7831 761.737 -12.233 684.937 1.89274 623.649C23.0083 676.396 72.8645 761.035 179.42 780.647Z" fill="#5EAEDD"/>
<path d="M71.4982 632.253C82.8357 644.59 99.6501 666.753 95.6921 670.961C91.6485 675.258 65.8321 660.947 48.2737 639.994C36.2857 625.69 25.9435 605.66 29.886 602.253C34.3481 598.398 56.7146 616.163 71.4982 632.253Z" fill="#B1EBED"/>
<path d="M612.418 847.78C612.418 954.482 537.561 1079.82 418.628 1079.82C344.929 1079.82 284.278 1034.7 248.825 974.372C227.023 937.336 214.727 894.566 214.727 852.989C214.727 743.675 334.036 748.885 409.645 748.885C492.571 748.885 591.01 742.531 609.365 819.757C611.374 828.086 612.418 837.393 612.418 847.78Z" fill="#5EBAE8"/>
<path d="M612.418 847.78C612.418 954.482 537.561 1079.82 418.627 1079.82C344.928 1079.82 284.278 1034.7 248.824 974.372C322.686 1009.14 533.085 1081.16 609.365 819.757C611.373 828.086 612.418 837.393 612.418 847.78Z" fill="#5EAEDD"/>
<path d="M255.909 810.606C240.46 835.798 251.388 871.646 277.916 885.72C305.956 900.594 344.105 887.258 354.53 857.69C364.435 829.6 345.35 798.118 318.005 789.287C296.077 782.204 268.754 789.661 255.909 810.606Z" fill="#B1EBED"/>
<path d="M776.978 925.201C775.785 974.241 764.355 1004.17 731.809 988.595C726.224 985.918 720.001 981.9 713.111 976.413C690.02 957.993 589.425 763.418 660.511 761.753C678.882 761.327 695.621 768.203 710.334 779.618C752.548 812.392 778.024 882.58 776.978 925.201Z" fill="#5EBAE8"/>
<path d="M776.979 925.201C775.787 974.241 764.356 1004.17 731.811 988.595C742.343 962.662 751.684 902.845 710.336 779.618C752.55 812.392 778.025 882.58 776.979 925.201Z" fill="#5EAEDD"/>
<path d="M681.164 854.827C694.31 885.303 713.888 938.346 708.26 940.954C703.183 943.305 676.906 904.95 662.778 860.633C654.907 835.947 649.986 806.836 654.067 805.474C659.144 803.78 677.074 845.347 681.164 854.827Z" fill="#B1EBED"/>
<path d="M206.071 524.229C199.049 517.207 193.594 509.09 189.823 500.387C181.119 480.415 181.151 457.373 190.867 437.531C200.731 417.397 219.347 403.059 241.018 397.915C247.141 396.444 253.527 395.711 260.026 395.808C274.838 480.415 206.071 524.229 206.071 524.229Z" fill="#5EBAE8"/>
<path d="M206.072 524.229C199.051 517.207 193.596 509.09 189.824 500.387C198.46 485.314 207.134 469.269 215.69 452.256C225.117 433.511 233.52 415.341 241.019 397.915C247.143 396.444 253.528 395.711 260.028 395.808C242.043 438.615 224.057 481.422 206.072 524.229Z" fill="#5EAEDD"/>
<path d="M624.062 609.506C616.435 715.228 374.046 750.158 260.663 686.257C229.162 668.506 207.622 643.114 203.834 609.506C186.409 454.924 288.751 313.39 406.33 313.39C448.952 313.39 499.004 329.703 540.45 365.842C593.574 412.105 632.635 490.883 624.062 609.506Z" fill="#5EBAE8"/>
<path d="M199.192 450.342C198.329 449.878 177.869 438.711 161.824 412.579C147.142 388.669 133.547 347.149 152.151 285.135L163.1 288.421C149.219 334.689 151.962 374.277 171.25 406.083C185.638 429.807 204.415 440.172 204.603 440.272L199.192 450.342Z" fill="#5EBAE8"/>
<path d="M188.592 273.714C188.592 288.412 176.677 300.326 161.979 300.326C147.281 300.326 135.367 288.412 135.367 273.714C135.367 259.016 147.281 247.102 161.979 247.102C176.677 247.102 188.592 259.016 188.592 273.714Z" fill="#284F80"/>
<path d="M561.159 516.131C561.159 537.342 537.871 550.407 507.856 558.164C476.24 566.345 437.162 568.648 409.956 568.387C371.008 568.011 295.888 561.251 268.797 536.575C262.444 530.795 258.736 524.018 258.736 516.131C258.736 493.154 268.306 472.348 283.787 457.275C299.269 442.22 320.662 432.91 344.292 432.91H475.604C503.071 432.91 527.518 445.502 543.162 465.066C554.447 479.174 561.159 496.893 561.159 516.131Z" fill="#284F80"/>
<path d="M561.158 516.131C561.158 537.342 537.87 550.407 507.856 558.164C476.24 566.345 437.161 568.648 409.956 568.387C371.008 568.011 295.887 561.251 268.797 536.575C345.94 534.256 477.073 521.601 543.162 465.066C554.446 479.174 561.158 496.893 561.158 516.131Z" fill="#334879"/>
<path d="M413.565 663.771C388.644 663.771 369.261 654.935 355.216 643.537C330.003 623.108 321.984 594.416 330.067 593.78C342.643 592.815 372.641 607.823 406.51 607.823C445.425 607.823 471.945 598.025 491.95 597.209C492.849 597.16 493.713 597.143 494.579 597.143C514.894 597.143 490.023 663.771 413.565 663.771Z" fill="#284F80"/>
<path d="M624.064 609.506C616.436 715.228 374.047 750.158 260.664 686.257C329.937 697.754 536.158 723 573.259 623.648C605.169 538.208 565.715 424.206 540.452 365.842C593.575 412.105 632.637 490.883 624.064 609.506Z" fill="#5EAEDD"/>
<path d="M270.849 417.419C277.114 425.682 315.629 408.389 341.493 389.356C366.283 371.113 391.591 342.339 386.008 334.197C381.05 326.965 352.608 337.272 334.719 346.777C294.684 368.049 264.024 408.418 270.849 417.419Z" fill="#B1EBED"/>
<path d="M214.727 581.932C215.644 610.174 232.901 636.986 239.882 635.156C247.21 633.236 244.228 599.505 240.851 580.963C239.881 575.642 233.949 543.084 226.334 543.223C220.346 543.333 214.133 563.64 214.727 581.932Z" fill="#B1EBED"/>
<path d="M534.312 498.242C534.312 519.35 517.199 536.463 496.091 536.463C479.773 536.463 465.849 526.257 460.364 511.874C458.748 507.641 457.857 503.045 457.857 498.242C457.857 477.134 474.969 460.023 496.091 460.023C511.63 460.023 524.996 469.295 530.955 482.606C533.113 487.382 534.312 492.672 534.312 498.242Z" fill="#383660"/>
<path d="M496.091 453.491C471.407 453.491 451.324 473.567 451.324 498.243C451.324 503.729 452.312 509.098 454.26 514.203C460.828 531.423 477.64 542.995 496.091 542.995C520.767 542.995 540.843 522.919 540.843 498.243C540.843 491.861 539.519 485.696 536.907 479.917C529.725 463.872 513.698 453.491 496.091 453.491ZM496.084 460.024C511.622 460.024 524.996 469.296 530.955 482.607C533.113 487.383 534.312 492.673 534.312 498.243C534.312 519.351 517.199 536.463 496.091 536.463C479.773 536.463 465.849 526.257 460.363 511.874C458.748 507.642 457.857 503.046 457.857 498.243C457.857 477.135 474.962 460.024 496.084 460.024Z" fill="#46AED1"/>
<path d="M530.921 482.532C516.653 517.026 481.262 515.998 460.447 511.987C458.817 507.761 457.91 503.169 457.895 498.365C457.825 477.257 474.879 460.087 496.001 460.018C511.539 459.966 524.918 469.241 530.921 482.532Z" fill="#2F4472"/>
<path d="M494.418 485.555C494.418 492.563 488.738 498.243 481.729 498.243C474.723 498.243 469.041 492.563 469.041 485.555C469.041 478.548 474.723 472.868 481.729 472.868C488.738 472.868 494.418 478.548 494.418 485.555Z" fill="#B1EBED"/>
<path d="M526.06 505.664C528.138 507.061 525.31 520.374 515.851 525.467C507.445 529.993 496.307 526.679 496.048 524.229C495.857 522.428 501.629 521.937 511.285 516.091C521.447 509.937 524.615 504.692 526.06 505.664Z" fill="#B1EBED"/>
<path d="M364.751 498.241C364.751 519.349 347.64 536.461 326.53 536.461C310.212 536.461 296.289 526.255 290.803 511.871C289.189 507.639 288.297 503.044 288.297 498.241C288.297 477.133 305.409 460.02 326.53 460.02C342.07 460.02 355.437 469.293 361.396 482.604C363.553 487.38 364.751 492.672 364.751 498.241Z" fill="#383660"/>
<path d="M326.531 453.488C301.847 453.488 281.766 473.563 281.766 498.24C281.766 503.725 282.753 509.095 284.701 514.199C291.269 531.42 308.08 542.992 326.531 542.992C351.208 542.992 371.285 522.916 371.285 498.24C371.285 491.859 369.96 485.692 367.349 479.913C360.166 463.869 344.14 453.488 326.531 453.488ZM326.525 460.02C342.064 460.02 355.437 469.292 361.396 482.604C363.554 487.379 364.752 492.671 364.752 498.24C364.752 519.348 347.64 536.46 326.531 536.46C310.213 536.46 296.29 526.254 290.804 511.87C289.189 507.639 288.298 503.043 288.298 498.24C288.298 477.132 305.404 460.02 326.525 460.02Z" fill="#46AED1"/>
<path d="M361.362 482.529C347.094 517.023 311.701 515.995 290.887 511.984C289.257 507.757 288.351 503.165 288.334 498.362C288.264 477.254 305.32 460.085 326.441 460.015C341.98 459.963 355.359 469.237 361.362 482.529Z" fill="#2F4472"/>
<path d="M324.856 485.551C324.856 492.56 319.176 498.24 312.168 498.24C305.161 498.24 299.48 492.56 299.48 485.551C299.48 478.545 305.161 472.863 312.168 472.863C319.176 472.863 324.856 478.545 324.856 485.551Z" fill="#B1EBED"/>
<path d="M356.5 505.661C358.576 507.057 355.748 520.37 346.29 525.464C337.883 529.99 326.746 526.676 326.487 524.227C326.296 522.426 332.068 521.933 341.723 516.086C351.885 509.934 355.055 504.689 356.5 505.661Z" fill="#B1EBED"/>
<path d="M421.329 441.613C421.699 444.152 404.523 450.133 386.733 451.774C357.872 454.434 331.426 445.295 331.815 442.096C331.994 440.628 350.243 440.453 386.733 440.16C416.053 439.927 421.134 440.272 421.329 441.613Z" fill="#2869BC"/>
<path d="M144.168 269.132C145.578 276.89 153.013 282.038 160.773 280.626C168.532 279.216 173.68 271.783 172.268 264.022C170.857 256.263 163.423 251.117 155.664 252.527C147.905 253.938 142.758 261.372 144.168 269.132Z" fill="#2869BC"/>
<path d="M413.566 663.771C388.645 663.771 369.262 654.935 355.217 643.537C389.053 639.079 455.55 626.913 491.951 597.209C492.849 597.16 493.713 597.143 494.579 597.143C514.894 597.143 490.024 663.771 413.566 663.771Z" fill="#334879"/>
<path d="M683.276 281.268C686.003 306.075 684.926 358.984 635.543 395.759C635.526 395.776 635.526 395.776 635.511 395.776C661.475 352.192 633.305 292.602 619.326 268.026L683.276 281.268Z" fill="#BAE1F4"/>
<path d="M895.503 232.353C770.561 407.327 486.789 297.366 386.112 250.698C373.375 225.699 368.753 196.339 374.86 166.735C381.997 132.146 402.411 103.771 429.649 85.8209C456.887 67.8545 490.937 60.3303 525.394 67.4943L795.007 123.556C849.615 134.916 888.743 179.799 895.503 232.353Z" fill="#BAE1F4"/>
<path d="M893.873 194.865C886.735 229.289 866.322 257.556 839.084 275.455C811.846 293.336 777.78 300.848 743.339 293.712L743.078 293.663L716.9 288.225V288.241C711.299 351.423 637.845 394.437 635.543 395.759C684.926 358.983 686.003 306.074 683.276 281.268L619.326 268.025L473.726 237.846C434.369 229.697 403.048 204.189 386.113 170.991C486.79 217.482 770.562 327.025 895.504 152.716C897.268 166.402 896.827 180.593 893.873 194.865Z" fill="#B1D3EF"/>
<path d="M743.078 293.663L716.9 288.242V288.225L743.078 293.663Z" fill="#BADAF4"/>
<path d="M657.018 91.0196C652.491 133.469 594.048 162.039 526.48 154.833C458.913 147.629 407.81 107.375 412.335 64.9271C416.864 22.4779 475.306 -6.09315 542.873 1.11273C610.441 8.31784 661.545 48.5717 657.018 91.0196Z" fill="#CAEFF9"/>
<path d="M543.052 166.34L532.094 164.017L541.136 121.362L492.742 111.103L483.7 153.758L472.742 151.436L492.57 57.9074L503.528 60.2298L494.83 101.255L543.224 111.514L551.922 70.489L562.88 72.8128L543.052 166.34Z" fill="#284F80"/>
<path d="M617.296 140.507C618.561 134.324 618.09 129.202 615.884 125.146C613.676 121.089 609.964 118.506 604.746 117.399C599.702 116.33 595.038 117.228 590.751 120.09C586.462 122.953 583.288 127.209 581.228 132.861L617.296 140.507ZM626.331 151.895L579.175 141.898C577.773 149.37 578.555 155.534 581.526 160.389C584.494 165.244 589.327 168.381 596.023 169.801C603.546 171.396 610.984 170.382 618.34 166.763L616.211 176.807C609.438 179.824 601.225 180.309 591.571 178.262C582.136 176.261 575.365 171.656 571.26 164.448C567.154 157.24 566.267 148.135 568.599 137.135C570.801 126.742 575.542 118.9 582.822 113.605C590.102 108.309 598.111 106.588 606.85 108.441C615.59 110.293 621.751 114.555 625.337 121.22C628.921 127.887 629.649 136.242 627.52 146.286L626.331 151.895Z" fill="#284F80"/>
<path d="M646.69 188.31L635.994 186.043L656.954 87.1671L667.65 89.4339L646.69 188.31Z" fill="#284F80"/>
<path d="M679.041 195.168L668.344 192.9L689.304 94.0243L700.001 96.2923L679.041 195.168Z" fill="#284F80"/>
<path d="M741.973 146.49C735.102 145.034 729.171 146.219 724.182 150.045C719.189 153.871 715.822 159.894 714.08 168.11C712.403 176.025 713.102 182.693 716.179 188.115C719.254 193.539 724.184 196.968 730.966 198.407C737.88 199.873 743.671 198.761 748.338 195.07C753.005 191.38 756.214 185.403 757.966 177.142C759.735 168.793 759.24 161.965 756.482 156.654C753.723 151.344 748.886 147.956 741.973 146.49ZM728.276 207.242C718.405 205.149 711.186 200.359 706.617 192.87C702.047 185.382 700.856 176.485 703.041 166.181C705.419 154.961 710.341 146.851 717.809 141.846C725.277 136.84 734.228 135.443 744.664 137.656C754.62 139.767 761.742 144.479 766.031 151.795C770.318 159.111 771.31 168.203 769.007 179.073C766.748 189.726 761.926 197.62 754.546 202.758C747.164 207.895 738.408 209.389 728.276 207.242Z" fill="#284F80"/>
<path d="M812.42 125.712L796.939 192.628L788.134 190.761L801.2 123.334L812.42 125.712ZM786.865 219.252C784.864 218.828 783.305 217.771 782.186 216.079C781.068 214.389 780.722 212.544 781.146 210.543C781.569 208.543 782.637 206.987 784.351 205.873C786.063 204.76 787.92 204.414 789.92 204.839C791.877 205.254 793.423 206.321 794.558 208.038C795.693 209.754 796.048 211.613 795.625 213.613C795.201 215.614 794.124 217.156 792.394 218.244C790.665 219.331 788.822 219.667 786.865 219.252Z" fill="#284F80"/>
<path d="M743.078 293.663L716.9 288.242V288.225L743.078 293.663Z" fill="#BAE1F4"/>
<path d="M620.808 1159.7C620.808 1189.28 528.305 1213.27 414.198 1213.27C300.092 1213.27 207.59 1189.28 207.59 1159.7C207.59 1130.11 300.092 1106.13 414.198 1106.13C528.305 1106.13 620.808 1130.11 620.808 1159.7Z" fill="#C8E9FF"/>
</svg>
