<svg width="83" height="91" viewBox="0 0 83 91" fill="none" xmlns="http://www.w3.org/2000/svg">
<path d="M14.8289 66.7297C29.6569 66.7297 81.5567 66.7297 81.5567 66.7297V14.8289C81.5567 14.8289 81.5567 0 66.7288 0C51.8989 0 0 0 0 0V51.9008C0 51.8998 0 66.7297 14.8289 66.7297ZM7.41495 7.41495C7.41495 7.41495 44.4858 7.41495 59.3138 7.41495C74.1427 7.41495 74.1427 22.2439 74.1427 22.2439V59.3157C74.1427 59.3157 37.0718 59.3157 22.2429 59.3157C7.41495 59.3157 7.41495 44.4868 7.41495 44.4868V7.41495Z" fill="white"/>
<path d="M68.8478 70.749C55.5458 70.749 2.73367 70.749 2.73367 70.749V77.2699C2.73367 77.2699 2.33768 90.6351 15.6397 90.6351C28.9417 90.6351 82.2778 90.6351 82.2778 90.6351V83.9205C82.2778 83.9205 82.149 70.749 68.8478 70.749ZM14.7907 76.8013H11.4377C11.4377 76.8013 8.57671 76.8013 8.57671 74.2075H14.7889H68.7199C68.7199 74.2075 71.5791 74.2075 71.5791 76.8013H14.7907Z" fill="white"/>
<path d="M44.9051 31.8079C46.2547 33.4091 46.9295 35.2047 46.9295 37.1949C46.8837 39.4823 46.1003 41.3981 44.5791 42.9421C43.0579 44.4862 41.2108 45.2582 39.0377 45.2582H30.0136C28.4124 45.2582 27.4745 44.8236 27.2 43.9543C27.0628 43.5655 26.9941 42.9707 26.9941 42.1701V23.1269C26.9941 22.5779 27.0113 22.1776 27.0456 21.926C27.0799 21.6743 27.1886 21.377 27.3716 21.0339C27.6918 20.4162 28.5839 20.1074 30.0479 20.1074H38.6946C40.799 20.1074 42.5604 20.8394 43.9786 22.3034C45.4655 23.7903 46.2089 25.5745 46.2089 27.6561C46.2089 29.1658 45.7743 30.5497 44.9051 31.8079ZM40.8562 36.8517C40.8562 36.3027 40.7933 35.8681 40.6675 35.5479C40.5417 35.2276 40.3301 34.9989 40.0327 34.8616C39.5752 34.6786 38.9348 34.5871 38.1113 34.5871C37.2878 34.5871 36.6702 34.427 36.2584 34.1068C35.8467 33.7865 35.6408 33.1289 35.6408 32.1338C35.6408 31.1388 35.8524 30.4811 36.2756 30.1609C36.6987 29.8406 37.4021 29.6805 38.3858 29.6805C39.3007 29.6805 39.8497 29.4403 40.0327 28.9599C40.1014 28.7083 40.1357 28.2966 40.1357 27.7247C40.1357 27.1528 39.947 26.7525 39.5695 26.5238C39.1921 26.295 38.6259 26.1807 37.8711 26.1807H33.0674V39.185H38.6946C40.1357 39.185 40.8562 38.4072 40.8562 36.8517ZM49.1598 42.2387V23.1612C49.1598 22.6351 49.1769 22.2405 49.2112 21.9774C49.2455 21.7144 49.3542 21.4113 49.5372 21.0682C49.8574 20.4505 50.7496 20.1417 52.2135 20.1417C53.8148 20.1417 54.7641 20.5649 55.0614 21.4113C55.1758 21.8002 55.233 22.3949 55.233 23.1955V42.273C55.233 42.822 55.2158 43.2223 55.1815 43.474C55.1472 43.7256 55.0386 44.023 54.8556 44.3661C54.5353 44.9837 53.6432 45.2925 52.1792 45.2925C50.578 45.2925 49.6401 44.8579 49.3656 43.9886C49.2284 43.6227 49.1598 43.0393 49.1598 42.2387Z" fill="white"/>
</svg>
