<svg width="512" height="512" viewBox="0 0 512 512" fill="none" xmlns="http://www.w3.org/2000/svg">
<circle cx="256" cy="256" r="256" fill="white"/>
<path d="M288.948 238.616C301.986 254.085 308.505 271.432 308.505 290.657C308.063 312.755 300.494 331.262 285.799 346.178C271.104 361.094 253.26 368.552 232.267 368.552H145.091C129.623 368.552 120.562 364.353 117.911 355.956C116.585 352.199 115.922 346.454 115.922 338.72V154.755C115.922 149.452 116.088 145.585 116.419 143.154C116.751 140.723 117.8 137.85 119.568 134.536C122.662 128.569 131.28 125.586 145.423 125.586H228.952C249.282 125.586 266.298 132.657 279.998 146.8C294.362 161.163 301.544 178.4 301.544 198.509C301.544 213.093 297.345 226.463 288.948 238.616ZM249.835 287.342C249.835 282.039 249.227 277.84 248.012 274.746C246.796 271.653 244.752 269.443 241.88 268.117C237.46 266.349 231.273 265.465 223.317 265.465C215.362 265.465 209.396 263.919 205.418 260.825C201.441 257.731 199.452 251.378 199.452 241.765C199.452 232.153 201.496 225.8 205.584 222.706C209.672 219.612 216.467 218.065 225.969 218.065C234.808 218.065 240.112 215.745 241.88 211.105C242.543 208.674 242.874 204.696 242.874 199.172C242.874 193.647 241.051 189.78 237.405 187.57C233.759 185.361 228.289 184.256 220.997 184.256H174.592V309.882H228.952C242.874 309.882 249.835 302.369 249.835 287.342ZM330.05 339.383V155.087C330.05 150.004 330.216 146.192 330.547 143.651C330.879 141.11 331.928 138.182 333.696 134.867C336.79 128.901 345.408 125.917 359.551 125.917C375.019 125.917 384.19 130.006 387.063 138.182C388.168 141.938 388.72 147.684 388.72 155.418V339.714C388.72 345.018 388.554 348.885 388.223 351.316C387.891 353.746 386.842 356.619 385.074 359.934C381.98 365.9 373.362 368.883 359.219 368.883C343.751 368.883 334.691 364.685 332.039 356.288C330.713 352.752 330.05 347.117 330.05 339.383Z" fill="#67BDFF"/>
</svg>
