<svg width="50" height="50" viewBox="0 0 50 50" fill="none" xmlns="http://www.w3.org/2000/svg">
<g clip-path="url(#clip0_440_450)">
<path d="M25 0C11.1922 0 0 11.1922 0 25C0 38.8078 11.1922 50 25 50C38.8078 50 50 38.8078 50 25C50 11.1922 38.8078 0 25 0ZM12.5 12.5H37.5C37.9469 12.5 38.3797 12.5953 38.7766 12.7766L25 28.8484L11.2234 12.775C11.6203 12.5937 12.0531 12.4984 12.5 12.4984V12.5ZM9.375 34.375V15.625C9.375 15.5594 9.37813 15.4938 9.38125 15.4297L18.5438 26.1203L9.48125 35.1828C9.41094 34.9219 9.37344 34.6516 9.37344 34.375H9.375ZM37.5 37.5H12.5C12.2234 37.5 11.9531 37.4625 11.6922 37.3922L20.5844 28.5L25 33.6516L29.4156 28.5L38.3078 37.3922C38.0469 37.4625 37.7766 37.5 37.5 37.5ZM40.625 34.375C40.625 34.6516 40.5875 34.9219 40.5172 35.1828L31.4547 26.1203L40.6188 15.4297C40.6234 15.4938 40.625 15.5594 40.625 15.625V34.375V34.375Z" fill="#424242"/>
</g>
<defs>
<clipPath id="clip0_440_450">
<rect width="50" height="50" fill="white"/>
</clipPath>
</defs>
</svg>
