<svg height="32" width="32" viewBox="0 0 32 32" fill="none" xmlns="http://www.w3.org/2000/svg">
<path d="M16 0.394531C7.164 0.394531 0 7.55753 0 16.3945C0 23.4635 4.585 29.4615 10.942 31.5765C11.742 31.7245 12.036 31.2295 12.036 30.8065C12.036 30.4255 12.021 29.1645 12.014 27.8275C7.562 28.7955 6.623 25.9395 6.623 25.9395C5.895 24.0905 4.847 23.5985 4.847 23.5985C3.395 22.6055 4.957 22.6255 4.957 22.6255C6.563 22.7385 7.409 24.2745 7.409 24.2745C8.836 26.7205 11.152 26.0135 12.065 25.6045C12.208 24.5705 12.623 23.8645 13.081 23.4645C9.527 23.0605 5.791 21.6875 5.791 15.5575C5.791 13.8105 6.416 12.3835 7.44 11.2625C7.274 10.8595 6.726 9.23253 7.595 7.02853C7.595 7.02853 8.939 6.59853 11.996 8.66853C13.272 8.31353 14.641 8.13653 16.001 8.12953C17.36 8.13553 18.73 8.31353 20.009 8.66853C23.063 6.59853 24.404 7.02853 24.404 7.02853C25.275 9.23253 24.727 10.8595 24.561 11.2625C25.587 12.3825 26.208 13.8105 26.208 15.5575C26.208 21.7025 22.465 23.0555 18.902 23.4525C19.476 23.9495 19.987 24.9225 19.987 26.4155C19.987 28.5565 19.968 30.2795 19.968 30.8065C19.968 31.2325 20.256 31.7315 21.067 31.5745C27.421 29.4565 32 23.4615 32 16.3945C32 7.55753 24.836 0.394531 16 0.394531Z" fill="#fff"/>
</svg>
